<svg width="16" height="9" viewBox="0 0 16 9" fill="none" xmlns="http://www.w3.org/2000/svg">
<path d="M14.9137 2.1633L8.66374 8.4133C8.57664 8.5007 8.47315 8.57004 8.35919 8.61736C8.24524 8.66468 8.12306 8.68904 7.99967 8.68904C7.87628 8.68904 7.75411 8.66468 7.64016 8.61736C7.5262 8.57004 7.42271 8.5007 7.33561 8.4133L1.08561 2.1633C0.90949 1.98718 0.810547 1.74831 0.810547 1.49923C0.810547 1.25016 0.90949 1.01129 1.08561 0.835171C1.26173 0.659051 1.5006 0.560108 1.74967 0.560108C1.99874 0.560108 2.23762 0.659051 2.41374 0.835171L8.00045 6.42189L13.5872 0.83439C13.7633 0.65827 14.0022 0.559326 14.2512 0.559326C14.5003 0.559326 14.7392 0.65827 14.9153 0.83439C15.0914 1.01051 15.1904 1.24938 15.1904 1.49845C15.1904 1.74752 15.0914 1.98639 14.9153 2.16252L14.9137 2.1633Z" fill="#072B68"/>
</svg>
