<svg width="116" height="119" viewBox="0 0 116 119" fill="none" xmlns="http://www.w3.org/2000/svg">
<mask id="mask0_12901_8057" style="mask-type:alpha" maskUnits="userSpaceOnUse" x="0" y="2" width="116" height="117">
<path fill-rule="evenodd" clip-rule="evenodd" d="M56.6977 2.06201C56.2795 8.10029 59.2872 14.1699 64.9403 17.4337C65.3269 17.6569 65.7187 17.8628 66.1147 18.0517C64.4858 26.2206 68.1798 34.9186 75.882 39.3654C81.8967 42.838 88.9344 42.8976 94.7105 40.1402C96.0065 43.4436 98.3897 46.3468 101.702 48.259C105.921 50.695 110.779 51.0214 115.055 49.5655C115.676 52.9653 116 56.4686 116 60.0477C116 92.0802 90.0325 118.048 58 118.048C25.9675 118.048 0 92.0802 0 60.0477C0 28.4504 25.2666 2.75446 56.6977 2.06201ZM80.1763 58.3419C80.1763 70.5896 70.2476 80.5184 57.9998 80.5184C45.7521 80.5184 35.8234 70.5896 35.8234 58.3419C35.8234 46.0942 45.7521 36.1654 57.9998 36.1654C70.2476 36.1654 80.1763 46.0942 80.1763 58.3419Z" fill="#F5C871"/>
</mask>
<g mask="url(#mask0_12901_8057)">
<circle cx="58" cy="60.0471" r="58" fill="#F5C871"/>
<circle cx="58.0007" cy="58.341" r="22.1765" fill="white"/>
<circle cx="93.4832" cy="86.6585" r="1.70588" fill="#312521"/>
<circle cx="1.70588" cy="1.70588" r="1.70588" transform="matrix(-1 0 0 1 23.2012 84.9526)" fill="#312521"/>
<circle cx="83.5887" cy="100.647" r="1.70588" fill="#312521"/>
<circle cx="1.70588" cy="1.70588" r="1.70588" transform="matrix(-1 0 0 1 33.0938 98.9409)" fill="#312521"/>
<circle cx="71.6473" cy="92.4583" r="1.70588" fill="#312521"/>
<circle cx="1.70588" cy="1.70588" r="1.70588" transform="matrix(-1 0 0 1 45.0371 90.7524)" fill="#312521"/>
<circle cx="58.0008" cy="98.9412" r="1.70588" fill="#312521"/>
<circle cx="1.70588" cy="1.70588" r="1.70588" transform="matrix(-1 0 0 1 59.707 97.2354)" fill="#312521"/>
<circle cx="87.0008" cy="47.764" r="1.70588" fill="#312521"/>
<circle cx="1.70588" cy="1.70588" r="1.70588" transform="matrix(-1 0 0 1 29.6836 46.0583)" fill="#312521"/>
<circle cx="69.9422" cy="104.058" r="1.70588" fill="#312521"/>
<circle cx="1.70588" cy="1.70588" r="1.70588" transform="matrix(-1 0 0 1 46.7422 102.352)" fill="#312521"/>
<circle cx="105.425" cy="70.9642" r="1.70588" fill="#312521"/>
<circle cx="1.70588" cy="1.70588" r="1.70588" transform="matrix(-1 0 0 1 11.2598 69.2583)" fill="#312521"/>
<circle cx="96.8953" cy="57.9998" r="1.70588" fill="#312521"/>
<circle cx="1.70588" cy="1.70588" r="1.70588" transform="matrix(-1 0 0 1 19.7891 56.2939)" fill="#312521"/>
<circle cx="100.307" cy="41.2821" r="1.70588" fill="#312521"/>
<circle cx="1.70588" cy="1.70588" r="1.70588" transform="matrix(-1 0 0 1 16.377 39.5764)" fill="#312521"/>
<circle cx="87.0008" cy="74.3763" r="1.70588" fill="#312521"/>
<circle cx="1.70588" cy="1.70588" r="1.70588" transform="matrix(-1 0 0 1 29.6836 72.6704)" fill="#312521"/>
<circle cx="81.8836" cy="32.0704" r="1.70588" fill="#312521"/>
<circle cx="1.70588" cy="1.70588" r="1.70588" transform="matrix(-1 0 0 1 34.8027 30.3645)" fill="#312521"/>
<circle cx="66.5301" cy="26.953" r="1.70588" fill="#312521"/>
<circle cx="1.70588" cy="1.70588" r="1.70588" transform="matrix(-1 0 0 1 50.1543 25.2471)" fill="#312521"/>
<circle cx="1.70588" cy="1.70588" r="1.70588" transform="matrix(-1 0 0 1 59.707 12.2822)" fill="#312521"/>
<circle cx="69.2599" cy="7.50571" r="1.02353" fill="#312521"/>
<circle cx="1.02353" cy="1.02353" r="1.02353" transform="matrix(-1 0 0 1 46.7422 6.48169)" fill="#312521"/>
<circle cx="89.7306" cy="19.1056" r="1.02353" fill="#312521"/>
<circle cx="1.02353" cy="1.02353" r="1.02353" transform="matrix(-1 0 0 1 26.2715 18.082)" fill="#312521"/>
<circle cx="108.154" cy="56.2938" r="1.02353" fill="#312521"/>
<circle cx="1.02353" cy="1.02353" r="1.02353" transform="matrix(-1 0 0 1 7.84766 55.2703)" fill="#312521"/>
<circle cx="87.0001" cy="62.0936" r="1.02353" fill="#312521"/>
<circle cx="1.02353" cy="1.02353" r="1.02353" transform="matrix(-1 0 0 1 29 61.0701)" fill="#312521"/>
<circle cx="91.7774" cy="96.2115" r="1.02353" fill="#312521"/>
<circle cx="1.02353" cy="1.02353" r="1.02353" transform="matrix(-1 0 0 1 24.2246 95.188)" fill="#312521"/>
<circle cx="60.7306" cy="109.518" r="1.02353" fill="#312521"/>
<circle cx="1.02353" cy="1.02353" r="1.02353" transform="matrix(-1 0 0 1 55.2715 108.494)" fill="#312521"/>
<circle cx="82.5665" cy="87.3407" r="1.02353" fill="#312521"/>
<circle cx="1.02353" cy="1.02353" r="1.02353" transform="matrix(-1 0 0 1 33.4375 86.3174)" fill="#312521"/>
<circle cx="103.719" cy="81.5409" r="1.02353" fill="#312521"/>
<circle cx="1.02353" cy="1.02353" r="1.02353" transform="matrix(-1 0 0 1 12.2832 80.5173)" fill="#312521"/>
<circle cx="103.719" cy="33.0938" r="1.02353" fill="#312521"/>
<circle cx="1.02353" cy="1.02353" r="1.02353" transform="matrix(-1 0 0 1 12.2832 32.0701)" fill="#312521"/>
<circle cx="78.4715" cy="17.3997" r="1.70588" fill="#312521"/>
<circle cx="1.70588" cy="1.70588" r="1.70588" transform="matrix(-1 0 0 1 38.2129 15.6938)" fill="#312521"/>
<circle cx="95.1883" cy="28.6585" r="1.70588" fill="#312521"/>
<circle cx="1.70588" cy="1.70588" r="1.70588" transform="matrix(-1 0 0 1 21.4941 26.9526)" fill="#312521"/>
<circle cx="54.2489" cy="89.3883" r="1.70588" fill="#FFE2D9"/>
<circle cx="64.825" cy="91.4349" r="1.70588" fill="#FFE2D9"/>
<circle cx="76.7664" cy="99.6229" r="1.70588" fill="#FFE2D9"/>
<circle cx="96.8953" cy="70.9642" r="1.70588" fill="#FFE2D9"/>
<circle cx="98.6004" cy="49.4698" r="1.70588" fill="#FFE2D9"/>
<circle cx="70.284" cy="20.1292" r="1.70588" fill="#FFE2D9"/>
<circle cx="85.2957" cy="23.5413" r="1.70588" fill="#FFE2D9"/>
<circle cx="88.7059" cy="37.8702" r="1.70588" fill="#FFE2D9"/>
<circle cx="39.9188" cy="104.058" r="1.70588" fill="#FFE2D9"/>
<circle cx="19.7899" cy="75.3997" r="1.70588" fill="#FFE2D9"/>
<circle cx="13.9891" cy="50.1529" r="1.70588" fill="#FFE2D9"/>
<circle cx="38.2137" cy="80.8582" r="1.70588" fill="#FFE2D9"/>
<circle cx="29.6824" cy="94.1641" r="1.70588" fill="#FFE2D9"/>
<circle cx="23.2" cy="35.8236" r="1.70588" fill="#FFE2D9"/>
<circle cx="42.9891" cy="31.3883" r="1.70588" fill="#FFE2D9"/>
<circle cx="46.4012" cy="19.1053" r="1.70588" fill="#FFE2D9"/>
<circle cx="56.2957" cy="20.8111" r="1.70588" fill="#FFE2D9"/>
<circle cx="60.3901" cy="7.8464" r="1.36471" fill="#FFE2D9"/>
<circle cx="31.0483" cy="15.3527" r="1.36471" fill="#FFE2D9"/>
<circle cx="109.519" cy="49.4704" r="1.36471" fill="#FFE2D9"/>
<circle cx="99.6245" cy="93.1411" r="1.36471" fill="#FFE2D9"/>
<circle cx="13.6485" cy="89.3878" r="1.02353" fill="#FFE2D9"/>
<circle cx="4.77744" cy="63.1173" r="1.02353" fill="#FFE2D9"/>
<circle cx="35.8263" cy="38.8936" r="1.02353" fill="#FFE2D9"/>
</g>
<ellipse cx="77.6177" cy="16.2061" rx="5.62941" ry="5.62941" fill="#F5C871"/>
<ellipse cx="91.2646" cy="10.406" rx="3.24118" ry="3.24118" fill="#F5C871"/>
<ellipse cx="68.747" cy="3.24093" rx="3.24118" ry="3.24118" fill="#F5C871"/>
</svg>
