<svg width="116" height="117" viewBox="0 0 116 117" fill="none" xmlns="http://www.w3.org/2000/svg">
<circle cx="58" cy="58.0471" r="58" fill="#F5C871"/>
<circle cx="58.0007" cy="56.341" r="22.1765" fill="white"/>
<circle cx="93.4832" cy="84.6585" r="1.70588" fill="#312521"/>
<circle cx="1.70588" cy="1.70588" r="1.70588" transform="matrix(-1 0 0 1 23.2012 82.9526)" fill="#312521"/>
<circle cx="83.5887" cy="98.6468" r="1.70588" fill="#312521"/>
<circle cx="1.70588" cy="1.70588" r="1.70588" transform="matrix(-1 0 0 1 33.0938 96.9409)" fill="#312521"/>
<circle cx="71.6473" cy="90.4583" r="1.70588" fill="#312521"/>
<circle cx="1.70588" cy="1.70588" r="1.70588" transform="matrix(-1 0 0 1 45.0371 88.7524)" fill="#312521"/>
<circle cx="58.0008" cy="96.9412" r="1.70588" fill="#312521"/>
<circle cx="1.70588" cy="1.70588" r="1.70588" transform="matrix(-1 0 0 1 59.707 95.2354)" fill="#312521"/>
<circle cx="87.0008" cy="45.764" r="1.70588" fill="#312521"/>
<circle cx="1.70588" cy="1.70588" r="1.70588" transform="matrix(-1 0 0 1 29.6836 44.0583)" fill="#312521"/>
<circle cx="69.9422" cy="102.058" r="1.70588" fill="#312521"/>
<circle cx="1.70588" cy="1.70588" r="1.70588" transform="matrix(-1 0 0 1 46.7422 100.352)" fill="#312521"/>
<circle cx="105.425" cy="68.9642" r="1.70588" fill="#312521"/>
<circle cx="1.70588" cy="1.70588" r="1.70588" transform="matrix(-1 0 0 1 11.2598 67.2583)" fill="#312521"/>
<circle cx="96.8953" cy="55.9998" r="1.70588" fill="#312521"/>
<circle cx="1.70588" cy="1.70588" r="1.70588" transform="matrix(-1 0 0 1 19.7891 54.2939)" fill="#312521"/>
<circle cx="100.307" cy="39.2821" r="1.70588" fill="#312521"/>
<circle cx="1.70588" cy="1.70588" r="1.70588" transform="matrix(-1 0 0 1 16.377 37.5764)" fill="#312521"/>
<circle cx="87.0008" cy="72.3763" r="1.70588" fill="#312521"/>
<circle cx="1.70588" cy="1.70588" r="1.70588" transform="matrix(-1 0 0 1 29.6836 70.6704)" fill="#312521"/>
<circle cx="81.8836" cy="30.0704" r="1.70588" fill="#312521"/>
<circle cx="1.70588" cy="1.70588" r="1.70588" transform="matrix(-1 0 0 1 34.8027 28.3645)" fill="#312521"/>
<circle cx="66.5301" cy="24.953" r="1.70588" fill="#312521"/>
<circle cx="1.70588" cy="1.70588" r="1.70588" transform="matrix(-1 0 0 1 50.1543 23.2471)" fill="#312521"/>
<circle cx="1.70588" cy="1.70588" r="1.70588" transform="matrix(-1 0 0 1 59.707 10.2822)" fill="#312521"/>
<circle cx="69.2599" cy="5.50571" r="1.02353" fill="#312521"/>
<circle cx="1.02353" cy="1.02353" r="1.02353" transform="matrix(-1 0 0 1 46.7422 4.48169)" fill="#312521"/>
<circle cx="89.7306" cy="17.1056" r="1.02353" fill="#312521"/>
<circle cx="1.02353" cy="1.02353" r="1.02353" transform="matrix(-1 0 0 1 26.2715 16.082)" fill="#312521"/>
<circle cx="108.154" cy="54.2938" r="1.02353" fill="#312521"/>
<circle cx="1.02353" cy="1.02353" r="1.02353" transform="matrix(-1 0 0 1 7.84766 53.2703)" fill="#312521"/>
<circle cx="87.0001" cy="60.0936" r="1.02353" fill="#312521"/>
<circle cx="1.02353" cy="1.02353" r="1.02353" transform="matrix(-1 0 0 1 29 59.0701)" fill="#312521"/>
<circle cx="91.7774" cy="94.2115" r="1.02353" fill="#312521"/>
<circle cx="1.02353" cy="1.02353" r="1.02353" transform="matrix(-1 0 0 1 24.2246 93.188)" fill="#312521"/>
<circle cx="60.7306" cy="107.518" r="1.02353" fill="#312521"/>
<circle cx="1.02353" cy="1.02353" r="1.02353" transform="matrix(-1 0 0 1 55.2715 106.494)" fill="#312521"/>
<circle cx="82.5665" cy="85.3407" r="1.02353" fill="#312521"/>
<circle cx="1.02353" cy="1.02353" r="1.02353" transform="matrix(-1 0 0 1 33.4375 84.3174)" fill="#312521"/>
<circle cx="103.719" cy="79.5409" r="1.02353" fill="#312521"/>
<circle cx="1.02353" cy="1.02353" r="1.02353" transform="matrix(-1 0 0 1 12.2832 78.5173)" fill="#312521"/>
<circle cx="103.719" cy="31.0938" r="1.02353" fill="#312521"/>
<circle cx="1.02353" cy="1.02353" r="1.02353" transform="matrix(-1 0 0 1 12.2832 30.0701)" fill="#312521"/>
<circle cx="78.4715" cy="15.3997" r="1.70588" fill="#312521"/>
<circle cx="1.70588" cy="1.70588" r="1.70588" transform="matrix(-1 0 0 1 38.2129 13.6938)" fill="#312521"/>
<circle cx="95.1883" cy="26.6585" r="1.70588" fill="#312521"/>
<circle cx="1.70588" cy="1.70588" r="1.70588" transform="matrix(-1 0 0 1 21.4941 24.9526)" fill="#312521"/>
<circle cx="54.2489" cy="87.3883" r="1.70588" fill="#FFE2D9"/>
<circle cx="64.825" cy="89.4349" r="1.70588" fill="#FFE2D9"/>
<circle cx="76.7664" cy="97.6229" r="1.70588" fill="#FFE2D9"/>
<circle cx="96.8953" cy="68.9642" r="1.70588" fill="#FFE2D9"/>
<circle cx="98.6004" cy="47.4698" r="1.70588" fill="#FFE2D9"/>
<circle cx="70.284" cy="18.1292" r="1.70588" fill="#FFE2D9"/>
<circle cx="85.2957" cy="21.5413" r="1.70588" fill="#FFE2D9"/>
<circle cx="88.7059" cy="35.8702" r="1.70588" fill="#FFE2D9"/>
<circle cx="39.9188" cy="102.058" r="1.70588" fill="#FFE2D9"/>
<circle cx="19.7899" cy="73.3997" r="1.70588" fill="#FFE2D9"/>
<circle cx="13.9891" cy="48.1529" r="1.70588" fill="#FFE2D9"/>
<circle cx="38.2137" cy="78.8582" r="1.70588" fill="#FFE2D9"/>
<circle cx="29.6824" cy="92.1641" r="1.70588" fill="#FFE2D9"/>
<circle cx="23.2" cy="33.8236" r="1.70588" fill="#FFE2D9"/>
<circle cx="42.9891" cy="29.3883" r="1.70588" fill="#FFE2D9"/>
<circle cx="46.4012" cy="17.1053" r="1.70588" fill="#FFE2D9"/>
<circle cx="56.2957" cy="18.8111" r="1.70588" fill="#FFE2D9"/>
<circle cx="60.3901" cy="5.8464" r="1.36471" fill="#FFE2D9"/>
<circle cx="31.0483" cy="13.3527" r="1.36471" fill="#FFE2D9"/>
<circle cx="109.519" cy="47.4704" r="1.36471" fill="#FFE2D9"/>
<circle cx="99.6245" cy="91.1411" r="1.36471" fill="#FFE2D9"/>
<circle cx="13.6485" cy="87.3878" r="1.02353" fill="#FFE2D9"/>
<circle cx="4.77744" cy="61.1173" r="1.02353" fill="#FFE2D9"/>
<circle cx="35.8263" cy="36.8936" r="1.02353" fill="#FFE2D9"/>
</svg>
