<svg width="88" height="88" viewBox="0 0 88 88" fill="none" xmlns="http://www.w3.org/2000/svg">
<g id="mdi:car">
<path id="Vector" d="M18.3333 40.3333L23.8333 23.8333H64.1667L69.6667 40.3333M64.1667 58.6666C62.708 58.6666 61.309 58.0871 60.2776 57.0557C59.2461 56.0242 58.6667 54.6253 58.6667 53.1666C58.6667 51.7079 59.2461 50.3089 60.2776 49.2775C61.309 48.246 62.708 47.6666 64.1667 47.6666C65.6254 47.6666 67.0243 48.246 68.0558 49.2775C69.0872 50.3089 69.6667 51.7079 69.6667 53.1666C69.6667 54.6253 69.0872 56.0242 68.0558 57.0557C67.0243 58.0871 65.6254 58.6666 64.1667 58.6666ZM23.8333 58.6666C22.3746 58.6666 20.9757 58.0871 19.9442 57.0557C18.9128 56.0242 18.3333 54.6253 18.3333 53.1666C18.3333 51.7079 18.9128 50.3089 19.9442 49.2775C20.9757 48.246 22.3746 47.6666 23.8333 47.6666C25.292 47.6666 26.691 48.246 27.7224 49.2775C28.7539 50.3089 29.3333 51.7079 29.3333 53.1666C29.3333 54.6253 28.7539 56.0242 27.7224 57.0557C26.691 58.0871 25.292 58.6666 23.8333 58.6666ZM69.3733 21.9999C68.64 19.8733 66.5867 18.3333 64.1667 18.3333H23.8333C21.4133 18.3333 19.36 19.8733 18.6267 21.9999L11 43.9999V73.3333C11 74.3057 11.3863 75.2383 12.0739 75.926C12.7616 76.6136 13.6942 76.9999 14.6667 76.9999H18.3333C19.3058 76.9999 20.2384 76.6136 20.9261 75.926C21.6137 75.2383 22 74.3057 22 73.3333V69.6666H66V73.3333C66 74.3057 66.3863 75.2383 67.0739 75.926C67.7616 76.6136 68.6942 76.9999 69.6667 76.9999H73.3333C74.3058 76.9999 75.2384 76.6136 75.9261 75.926C76.6137 75.2383 77 74.3057 77 73.3333V43.9999L69.3733 21.9999Z" fill="#072B68"/>
</g>
</svg>
