<svg width="18" height="16" viewBox="0 0 18 16" fill="none" xmlns="http://www.w3.org/2000/svg">
<path id="Vector" d="M14.625 10.125C14.0707 10.1255 13.5323 10.3099 13.0941 10.6492C12.6558 10.9885 12.3425 11.4635 12.2031 12H4.625C3.96196 12 3.32607 11.7366 2.85723 11.2678C2.38839 10.7989 2.125 10.163 2.125 9.5C2.125 8.83696 2.38839 8.20107 2.85723 7.73223C3.32607 7.26339 3.96196 7 4.625 7H12.125C12.9538 7 13.7487 6.67076 14.3347 6.08471C14.9208 5.49866 15.25 4.7038 15.25 3.875C15.25 3.0462 14.9208 2.25134 14.3347 1.66529C13.7487 1.07924 12.9538 0.75 12.125 0.75H4.625C4.45924 0.75 4.30027 0.815848 4.18306 0.933058C4.06585 1.05027 4 1.20924 4 1.375C4 1.54076 4.06585 1.69973 4.18306 1.81694C4.30027 1.93415 4.45924 2 4.625 2H12.125C12.6223 2 13.0992 2.19754 13.4508 2.54917C13.8025 2.90081 14 3.37772 14 3.875C14 4.37228 13.8025 4.84919 13.4508 5.20083C13.0992 5.55246 12.6223 5.75 12.125 5.75H4.625C3.63044 5.75 2.67661 6.14509 1.97335 6.84835C1.27009 7.55161 0.875 8.50544 0.875 9.5C0.875 10.4946 1.27009 11.4484 1.97335 12.1517C2.67661 12.8549 3.63044 13.25 4.625 13.25H12.2031C12.32 13.7027 12.5615 14.1135 12.9001 14.4359C13.2388 14.7582 13.661 14.9791 14.1189 15.0735C14.5768 15.1679 15.052 15.132 15.4906 14.9699C15.9291 14.8078 16.3134 14.526 16.5998 14.1564C16.8862 13.7869 17.0632 13.3444 17.1108 12.8793C17.1583 12.4142 17.0745 11.9451 16.8689 11.5252C16.6632 11.1054 16.3439 10.7516 15.9473 10.5041C15.5506 10.2566 15.0925 10.1252 14.625 10.125ZM14.625 13.875C14.3778 13.875 14.1361 13.8017 13.9305 13.6643C13.725 13.527 13.5648 13.3318 13.4701 13.1034C13.3755 12.8749 13.3508 12.6236 13.399 12.3811C13.4472 12.1387 13.5663 11.9159 13.7411 11.7411C13.9159 11.5663 14.1387 11.4472 14.3811 11.399C14.6236 11.3508 14.8749 11.3755 15.1034 11.4701C15.3318 11.5648 15.527 11.725 15.6643 11.9305C15.8017 12.1361 15.875 12.3778 15.875 12.625C15.875 12.9565 15.7433 13.2745 15.5089 13.5089C15.2745 13.7433 14.9565 13.875 14.625 13.875Z" fill="#072B68"/>
</svg>
